<svg width="64" height="64" viewBox="0 0 64 64" fill="none" xmlns="http://www.w3.org/2000/svg">
  <!-- Beautiful Monstera Leaf Favicon for Growhaus -->
  
  <!-- Background circle for visibility -->
  <circle cx="32" cy="32" r="30" fill="#F9F9F7" opacity="0.95"/>
  
  <!-- Main monstera leaf shape with natural curves -->
  <path d="M32 12 C28 12 24 14 22 18 C20 22 20 26 22 30 C23 32 24 34 26 35 L28 33 C28 31 29 29 30 28 L32 26 L34 28 C35 29 36 31 36 33 L38 35 C40 34 41 32 42 30 C44 26 44 22 42 18 C40 14 36 12 32 12 Z" fill="#2D4A3E"/>
  
  <!-- Monstera fenestrations (characteristic holes) -->
  <ellipse cx="26" cy="24" rx="2" ry="3.5" fill="#F9F9F7" opacity="0.9"/>
  <ellipse cx="32" cy="22" rx="1.5" ry="3" fill="#F9F9F7" opacity="0.9"/>
  <ellipse cx="38" cy="24" rx="2" ry="3.5" fill="#F9F9F7" opacity="0.9"/>
  
  <!-- Leaf splits/lobes for monstera character -->
  <path d="M24 28 Q26 30 28 32" stroke="#F9F9F7" stroke-width="2" stroke-linecap="round" opacity="0.8"/>
  <path d="M40 28 Q38 30 36 32" stroke="#F9F9F7" stroke-width="2" stroke-linecap="round" opacity="0.8"/>
  
  <!-- Leaf veins for detail -->
  <path d="M32 16 L32 26 M28 20 L32 24 M36 20 L32 24" stroke="#8FBC8F" stroke-width="1.5" stroke-linecap="round" opacity="0.6"/>
  
  <!-- Stem -->
  <rect x="30.5" y="32" width="3" height="16" rx="1.5" fill="#2D4A3E"/>
  
  <!-- Small side leaves for fullness -->
  <ellipse cx="27" cy="38" rx="4" ry="2.5" transform="rotate(-30 27 38)" fill="#8FBC8F" opacity="0.85"/>
  <ellipse cx="37" cy="38" rx="4" ry="2.5" transform="rotate(30 37 38)" fill="#8FBC8F" opacity="0.85"/>
  
  <!-- Subtle shadow for depth -->
  <ellipse cx="32" cy="52" rx="12" ry="2" fill="#2D4A3E" opacity="0.1"/>
</svg>
